<svg width="121" height="83" viewBox="0 0 121 83" fill="none" xmlns="http://www.w3.org/2000/svg">
  <path
    d="M0 58.2996C0 42.805 12.5608 30.2441 28.0554 30.2441H92.1622C107.657 30.2441 120.218 42.805 120.218 58.2996V58.2996C120.218 63.4644 116.031 67.6514 110.866 67.6514H9.35182C4.18696 67.6514 0 63.4644 0 58.2996V58.2996Z"
    fill="#79DF7D" />
  <path
    d="M26.0165 11.7738C27.5309 4.89743 33.6243 0 40.6654 0L77.9668 0C85.2013 0 91.405 5.16372 92.7178 12.2781L96.1406 30.8279C97.8417 40.0468 90.7642 48.5498 81.3897 48.5498H36.5801C26.9955 48.5498 19.8697 39.6839 21.9311 30.3236L26.0165 11.7738Z"
    fill="#79DF7D" />
  <path d="M32.9443 7.95898H86.1175L89.0073 27.0606H29.1875L32.9443 7.95898Z" fill="#A5CAD2" />
  <rect x="57.797" y="4.77539" width="4.62375" height="31.0401" fill="#79DF7D" />
  <circle r="10" transform="matrix(-0.458333 0.888781 0.872376 0.488836 95.5695 67.4823)" fill="#626262" />
  <circle r="5" transform="matrix(-0.458333 0.888781 0.872376 0.488836 95.8079 67.3693)" fill="black" />
  <circle r="10" transform="matrix(-0.458333 0.888781 0.872376 0.488836 23.8814 68.3809)" fill="#626262" />
  <circle r="5" transform="matrix(-0.458333 0.888781 0.872376 0.488836 24.1198 68.2678)" fill="black" />
</svg>
