<svg id="Graphic_elements" data-name="Graphic elements" xmlns="http://www.w3.org/2000/svg" viewBox="0 0 1200 800"><defs><style>.cls-1{fill:#28180f;}.cls-1,.cls-2{fill-rule:evenodd;}.cls-2{fill:#fff200;}.cls-3{fill:#ed1c24;}</style></defs><path class="cls-1" d="M158.68,304.31c-1.33-.47-3.76-.32-2.64-2.34.26-.46,3,.1,4.6.19Z"/><path d="M544.18,739.93c-1.39-1.54-1.42-3-1.72-4.27-2.18-9.32-4.23-18.66-6.49-28-4.64-19.09-10.09-37.94-17.59-56.14-4.89-11.85-10.34-23.42-17.6-34a85.28,85.28,0,0,0-13-15.33,47.54,47.54,0,0,0-29-12.3,91.37,91.37,0,0,0-22.28,1.24,280.48,280.48,0,0,0-40.47,10.13c-19.55,6.34-38.37,14.44-56.92,23.24-15.49,7.35-30.87,15-46,23.09-1.28.69-2.5,1.6-4,1.63-.81-.84-.29-1.52,0-2.14,2.28-4.42,4.59-8.82,6.87-13.23a246.46,246.46,0,0,0,12.19-26.79,104.81,104.81,0,0,0,6.88-30.8,62.88,62.88,0,0,0-.51-12.64c-1.71-11.74-7.55-20.86-17.27-27.59a77.11,77.11,0,0,0-21.19-9.92,266,266,0,0,0-42.6-9.16c-18.61-2.61-37.34-3.81-56.09-4.66-16.76-.77-33.52-1.48-50.3-1.49q-22.54,0-45.1.18c-6.46,0-12.92.34-19.38.53-3.46.1-4.14-.09-4.69-4.15a2.11,2.11,0,0,1,1.4-2.36c.91-.39,1.84-.76,2.76-1.13,17.05-6.9,34.16-13.67,51.13-20.74a461.63,461.63,0,0,0,45-21.61,251.63,251.63,0,0,0,35.24-23A113.53,113.53,0,0,0,208.45,425a52.47,52.47,0,0,0,8-11.62,30,30,0,0,0,2-22.11A50.16,50.16,0,0,0,213.07,379a110.85,110.85,0,0,0-13.39-17.41,193.61,193.61,0,0,0-28.79-25.31c-14.25-10.45-29.19-19.83-44.4-28.8-6.53-3.85-13.09-7.65-19.63-11.48-1.07-.63-2.16-1.24-3.2-1.92-1.71-1.13-1.88-1.72-1.25-3.76.85-2.73,1.36-3.11,4.34-2.78,9,1,18,2,27,3.06,20.63,2.34,41.27,4.54,62,6,11.28.8,22.58,1.34,33.89,1.3a264.4,264.4,0,0,0,42-3.11,91.09,91.09,0,0,0,21.85-6.09,44.39,44.39,0,0,0,11.68-7.26,32.74,32.74,0,0,0,10.1-16.21,57.53,57.53,0,0,0,1.82-18.47c-.82-16.29-4.78-31.9-10.47-47.11a319.08,319.08,0,0,0-13.17-30c-3.59-7.23-7.28-14.42-10.91-21.63-.49-1-.91-2-1.31-2.88a1.1,1.1,0,0,1,1.74-.38c1.08.62,2.14,1.27,3.19,1.93,14.29,9,28.63,18,43.35,26.3a401.63,401.63,0,0,0,48.55,23.67,227.35,227.35,0,0,0,46.84,13.51,95,95,0,0,0,22.65,1.3,65.93,65.93,0,0,0,42.25-19.06,117.6,117.6,0,0,0,16.28-20.33,178,178,0,0,0,18.71-38.87,416.67,416.67,0,0,0,13.49-48.83c1-4.49,2-9,3-13.46.21-.91.21-2,1.54-2.6a6.5,6.5,0,0,1,1.07,1.27c.87,1.79,1.67,3.61,2.47,5.43,6.6,14.88,13.22,29.76,20.55,44.3,8.17,16.22,17.19,31.94,28,46.59A201.92,201.92,0,0,0,620.42,195c6.51,6,13.48,11.39,21.48,15.32a54.43,54.43,0,0,0,37,4.36,86.9,86.9,0,0,0,20.14-7.73c16.62-8.44,31.58-19.27,45.56-31.52,9.92-8.68,19.18-18,28.4-27.46,15.23-15.55,29.1-32.31,43.58-48.53,1-1.08,1.71-2.46,3.53-3a7.66,7.66,0,0,1,.62,2c.06,3.85,0,7.7,0,11.55,0,9.44-.11,18.89.06,28.32.22,12.55.86,25.08,2.29,37.56,1.79,15.59,4.67,31,9.72,45.86a65.51,65.51,0,0,0,5.1,11.57A30.21,30.21,0,0,0,856.9,248a72.5,72.5,0,0,0,17.3,2.56c8.44.24,16.9.39,25.34.19q15.83-.36,31.65-1.37c20.48-1.29,40.84-3.71,61.18-6.38,9.74-1.27,19.45-2.71,29.19-4,7.88-1,15.79-1.93,23.69-2.87a20.09,20.09,0,0,1,2.45,0,1.13,1.13,0,0,1-.29,1.74c-1.25,1-2.52,2-3.81,3-13,9.94-26.1,19.88-38.67,30.43a337.07,337.07,0,0,0-32.08,30.59,140.41,140.41,0,0,0-15.41,19.62,71.61,71.61,0,0,0-8,16.79,46,46,0,0,0-1.46,5.77,22.45,22.45,0,0,0,4.24,18,38.49,38.49,0,0,0,7,7.18,108.49,108.49,0,0,0,23.66,14.05,267.48,267.48,0,0,0,28.63,10.68c27.94,9.07,56.46,15.86,85.28,21.48,14.88,2.9,29.81,5.54,44.72,8.3,1.71.32,3.43.59,5.13,1,2,.46,2.36,1,2.42,3.13v.37c0,2.48-.36,3-2.93,3.43-5.64.93-11.3,1.74-17,2.64-22.82,3.67-45.67,7.19-68.46,11.09a699.48,699.48,0,0,0-74.2,16.54c-8.72,2.49-17.36,5.3-26,8.14a68.18,68.18,0,0,0-14.86,6.88,55.88,55.88,0,0,0-6.62,4.81,24.52,24.52,0,0,0-8.84,18.61A50.34,50.34,0,0,0,931.85,514,138.43,138.43,0,0,0,943,544c3.14,6.2,6.67,12.21,10.27,18.16,5.09,8.39,10.42,16.64,15.62,25A8.48,8.48,0,0,1,970.7,591a5.83,5.83,0,0,1-1.78.24c-1.57-.35-3.12-.83-4.67-1.28-18.39-5.31-36.75-10.72-55.33-15.33A494.56,494.56,0,0,0,841,562.76c-6.67-.69-13.36-1.25-20.09-.6a52.29,52.29,0,0,0-11,2.1,27,27,0,0,0-18.06,17.46A47.23,47.23,0,0,0,789.44,593a147,147,0,0,0-.25,23.08,276.54,276.54,0,0,0,6.11,42.38c1.48,6.93,3.14,13.81,4.68,20.73.59,2.66,1,5.36,1.59,8,.45,2.18.88,4.38,1.53,6.5a2.72,2.72,0,0,1-.92,3.29l-.56.49c-1.94,1.66-2.44,1.71-4.42-.09-6.44-5.85-12.83-11.75-19.27-17.6-13.63-12.36-27.52-24.41-42.31-35.38-11.89-8.82-24.12-17.13-37.28-24-10.41-5.4-21.2-9.82-32.72-12.27a59.68,59.68,0,0,0-24.43-.57,55.41,55.41,0,0,0-23.06,10.87,110.7,110.7,0,0,0-14.28,13.61C592,645.28,582.34,660,574,675.65a513,513,0,0,0-25.16,54.45c-1,2.66-2.16,5.29-3.3,7.91A12.5,12.5,0,0,1,544.18,739.93Z"/><path class="cls-2" d="M810.23,92.86c-.16,38.43-.63,76.63,10.29,114,8.69,29.72,19.93,36.9,55.06,37.38,49.27.68,97.64-6,146-12.86,2.89-.41,5.81-.67,11.1-1.27-22.61,17.23-43.46,33.26-61.45,51.72-14.07,14.45-27.34,29.32-32.7,48.32-3.74,13.27.87,23.65,12.16,32.47,14.87,11.62,32.94,18.31,51.3,24.33,41.29,13.56,84.21,22,127.38,29.56,3.83.67,7.65,1.41,12.2,2.25-62.14,9.77-124,17.72-182.75,36.74-37.58,12.17-45.52,27.24-34.2,60.55A164.85,164.85,0,0,0,939,547.43c5.92,9.94,12.25,19.7,19,30.44-30.51-8.81-60.07-17.69-90.84-22.75-13.72-2.26-27.56-4.4-41.46-5.25-31-1.9-45.71,10.31-47.11,37.93-1.49,29.31,4.88,57.85,11.74,86.3,1.12,4.65.6,9.61,3.68,14.09-23.89-21.94-47.21-43.9-74.25-62.59-15.05-10.41-30.78-20-48.83-26.11-29.38-10-50.87-5.22-71.46,15.54-24.27,24.47-38.5,53.67-52.11,83.12-3.53,7.63-6.47,15.46-10.39,24.91-7.12-32-14.49-62.25-27.66-91.17a169.9,169.9,0,0,0-13.32-24.46C477.69,580.17,458.25,573,422.49,580,378,588.63,339,607.73,300.07,627.15c-4,2-7.82,4.1-13.58,7.14,11.15-21.27,20.93-40.82,23.22-62.55,3.27-31.1-10.13-49.17-44.81-59-33.18-9.43-67.73-11.56-102.15-13.06-36.31-1.58-72.73-1.92-112.48-.37,18.29-7.3,33.88-13.21,49.15-19.7,27-11.51,53.59-23.82,77.21-40.19A182.82,182.82,0,0,0,196,424.11c22.38-20.55,24.33-39.56,6.54-63.39-16.67-22.33-40.12-38.81-64.51-54.31-14-8.92-28.66-17.12-43.32-25.82,23,2.53,46,5.37,69,7.5,31.39,2.9,62.92,5,94.34,1,48.23-6.23,58.29-28,52.49-65.9-4.29-28.06-16.9-54.17-31.09-81.77,26.86,17,52.13,32.23,79.76,44.29,18.75,8.18,38,14.68,58.87,18,31.23,5,54.76-4.59,72.65-26.16,21.82-26.33,31.35-56.82,39.26-87.81,2-8,3.66-16.06,5.45-24,18.83,42.32,37.46,84.6,72.63,119.4a122.37,122.37,0,0,0,13.15,11c20.54,15.32,42.94,17.3,66.67,6.12,34.17-16.1,59.43-40.77,83.72-66.15,13.36-13.95,25.63-28.68,38.6-43.29Z"/><path d="M536,733.34l-2.14-9.61c-7-31.21-14.27-61.62-27.45-90.55a166.53,166.53,0,0,0-13.08-24c-17.41-26-35.79-32.86-70.26-26.14-45.32,8.83-85.86,29.06-121.62,46.91-2.57,1.28-5,2.61-8.19,4.28l-5.33,2.84-8.86,4.66,4.65-8.86c11.64-22.21,20.72-40.83,22.89-61.44,3.12-29.67-9.61-46.33-42.57-55.7-32.74-9.3-66.67-11.43-101.44-12.94-39.26-1.71-74.92-1.83-112.22-.37l-1.28-6c5.87-2.34,11.47-4.54,16.86-6.67,11.26-4.43,21.9-8.61,32.23-13,25.72-10.94,52.8-23.34,76.66-39.88a178.87,178.87,0,0,0,19-15c21.23-19.49,23-36.65,6.16-59.23-17.13-22.94-41.86-39.67-63.69-53.55-9.6-6.1-19.73-12-29.53-17.72-4.48-2.62-9.13-5.33-13.71-8.05L95,277.49q10.65,1.17,21.29,2.4C132,281.68,148.1,283.52,164,285c29.88,2.76,61.72,5.11,93.66,1,22-2.83,36.32-9.1,43.88-19.15,7.21-9.57,9-22.89,5.93-43.19-4.23-27.58-16.44-52.92-30.79-80.82l-5.22-10.15,9.65,6.1c24.45,15.44,50.71,31.57,79.35,44.07,21,9.17,39.47,14.81,58.11,17.76,29.13,4.61,51.95-3.59,69.76-25.08C510.4,148.9,519.53,118.14,527,88.92c1.39-5.43,2.6-11,3.78-16.38.55-2.52,1.09-5,1.65-7.51l2.07-9.15,4.34,9.75c18.2,40.91,37,83.21,71.45,117.28a120,120,0,0,0,12.82,10.77c19.47,14.52,40.83,16.47,63.48,5.8,33.85-15.95,58.48-40.08,82.81-65.49,9.14-9.55,18-19.69,26.51-29.5,3.9-4.49,8-9.14,12-13.7l1.43-1.62,4,1.55V95.9C813.17,132.35,813,170,823.51,206c8.22,28.1,18,34.67,52.11,35.14,49.76.68,98.46-6.19,145.53-12.83,1.93-.28,3.8-.48,6.39-.75l4.8-.53,11.2-1.27-9,6.84c-21,16-42.71,32.54-61.1,51.42-13.3,13.65-26.73,28.53-31.93,47-3.24,11.47.28,20.74,11.07,29.17,14.87,11.61,33,18.14,50.36,23.83,39,12.81,79,21,127,29.44,2.62.46,5.24.95,8.09,1.49l4.13.77-.08,6.13q-12.43,2-24.85,3.85c-52.48,8.05-106.75,16.38-157.42,32.78-19.17,6.21-29.7,12.93-34.15,21.79-4.08,8.13-3.48,18.86,1.94,34.8a162.29,162.29,0,0,0,14.08,30.8c4.07,6.83,8.31,13.54,12.8,20.66,2,3.17,4,6.4,6.12,9.72l4.31,6.9-14.66-4.24c-28.47-8.25-55.36-16-83.64-20.69-13.2-2.17-27.25-4.37-41.14-5.21-15.43-1-26.37,1.67-33.44,8-6.34,5.67-9.74,14.5-10.37,27-1.44,28.33,4.43,55.44,11.65,85.41a42.68,42.68,0,0,1,.8,4.81c.4,3.11.74,5.8,2.42,8.24l-4.67,4.06-5.4-5c-22.47-20.67-43.69-40.19-68.51-57.35-13.2-9.13-29.24-19.32-48.06-25.73-28.08-9.55-48.49-5.13-68.26,14.79-23.35,23.55-37.13,51.18-51.48,82.23-2.34,5.06-4.48,10.35-6.74,16-1.13,2.8-2.31,5.73-3.6,8.84Zm-90.94-159c23.29,0,38.93,9.62,53.44,31.32a171.3,171.3,0,0,1,13.57,24.9c12,26.45,19.26,53.94,25.69,82.1,2.23-5.54,4.35-10.77,6.7-15.86,14.61-31.6,28.66-59.73,52.73-84,21.39-21.57,44.42-26.6,74.68-16.3,19.54,6.65,36,17.13,49.59,26.5,24.08,16.65,45.61,36.21,66.37,55.3a32.86,32.86,0,0,0-.6-3.51c-7.34-30.45-13.3-58-11.82-87.19.73-14.23,4.8-24.48,12.44-31.31,8.37-7.49,20.79-10.62,38-9.57,14.18.87,28.41,3.09,41.77,5.29,28.31,4.65,55.08,12.37,83.36,20.56-.59-.93-1.18-1.86-1.76-2.79-4.52-7.15-8.78-13.9-12.89-20.8a167.41,167.41,0,0,1-14.62-32c-6-17.64-6.5-29.85-1.61-39.59,5.25-10.47,16.91-18.16,37.79-24.92,51.15-16.56,105.67-24.92,158.4-33l6.57-1c-45.58-8.1-84-16.22-121.81-28.61-17.85-5.86-36.59-12.6-52.25-24.83-12.86-10.06-17.19-21.76-13.23-35.77,5.6-19.86,19.6-35.42,33.46-49.65,16.08-16.5,34.51-31.14,52.82-45.17-47.25,6.67-96.12,13.56-146.29,12.87-19.48-.27-30.82-2.67-39.14-8.26-8.57-5.76-14-14.85-18.86-31.37-10.26-35.07-10.59-71.35-10.46-106.6l-6.5,7.45c-8.59,9.87-17.47,20.07-26.71,29.72-23.76,24.82-49.86,50.43-84.64,66.82-24.9,11.73-48.41,9.56-69.86-6.44a127.08,127.08,0,0,1-13.48-11.33c-33.15-32.8-52-72.64-69.43-111.71-1.07,4.88-2.18,9.89-3.44,14.83-7.3,28.6-17,61.42-39.88,89-19.34,23.33-44,32.24-75.53,27.26-19.17-3-38.12-8.82-59.63-18.21-25.32-11.05-48.71-24.84-70.63-38.51,12.33,24.54,22.44,47.56,26.28,72.67,3.34,21.79,1.08,37-7.11,47.88-8.74,11.61-24,18.47-48.06,21.58-32.56,4.2-64.8,1.83-95-1-16-1.48-32.16-3.33-47.81-5.11l-6.72-.77,1.06.62c9.85,5.74,20,11.68,29.73,17.85C162,318,187.26,335.07,205,358.86c18.74,25.1,16.61,45.93-6.93,67.54A185.43,185.43,0,0,1,178.41,442c-24.32,16.86-51.75,29.43-77.77,40.5-10.41,4.43-21.09,8.63-32.39,13.08l-.18.07c31.13-.8,61.7-.49,94.81.95,35.16,1.53,69.48,3.69,102.88,13.18,36,10.23,50.51,29.45,47.05,62.33-2,18.83-9.27,35.76-19,54.8,1.67-.88,3.26-1.71,4.84-2.5,36.12-18,77.06-38.46,123.21-47.45A122.2,122.2,0,0,1,445.07,574.38Z"/><path d="M557.06,447c-.32.69-.7,1.35-1,2.06-1.83,5.14-3.51,10.33-5.47,15.42A253.49,253.49,0,0,1,525,514.13a149.26,149.26,0,0,1-19.74,24.18c-9,8.8-19,16.09-30.74,20.89A74.46,74.46,0,0,1,445.74,565a52.45,52.45,0,0,1-35.07-13.28c-7.57-6.54-13.27-14.53-18-23.28-7.41-13.77-11.67-28.53-13.87-43.94-.27-1.94-.27-1.94-1.19-3a11.11,11.11,0,0,0-.86,1.61c-5.12,15.25-13.88,28.34-24.13,40.52a197.15,197.15,0,0,1-41.56,37,152.78,152.78,0,0,1-46.82,20.54,225.84,225.84,0,0,1-39.11,6.16c-2,.16-2.42-.22-2.34-2.32.15-4,.38-7.93.57-11.89.23-4.83.47-9.66.67-14.49.33-7.86.66-15.73.93-23.59.23-7.07.38-14.13.57-21.2s.38-14,.56-21c.08-3.22.12-6.44.17-9.67.08-5.82.17-11.65.23-17.48.07-6.2.1-12.4.16-18.6.07-6.82.17-13.63.21-20.45.07-13.33.09-26.67.17-40,0-7.31.26-14.63.18-21.94-.12-10.23-.45-20.45-.68-30.67,0-.38,0-.75,0-1.12,0-1.86.29-2.26,2.07-2.81,13.64-4.23,26.85-9.65,40.15-14.8,13.09-5.05,26.23-10,39.86-13.36,12.46-3.07,25.13-4.7,38-3.24a42.45,42.45,0,0,1,12.89,3.45c10.42,4.73,16.11,13.05,18.11,24.08a77.82,77.82,0,0,1,.68,22.24,103.64,103.64,0,0,1-10.09,34.07c-6.49,13.51-15,25.68-24.57,37.15-.63.77-1.31,1.5-1.89,2.3-.27.37-.61,1.09-.46,1.27a2.11,2.11,0,0,0,1.4.64c2.1.08,4.21,0,6.32.1a36.74,36.74,0,0,1,12.51,2.6,27.2,27.2,0,0,1,13.89,12.11c.46.81.67,1.9,1.85,2.23.78-1,.62-2.14.76-3.21.67-5.48,1.16-11,2-16.44A255.36,255.36,0,0,1,404,344.59a222.3,222.3,0,0,1,21.77-35.89c7.92-10.44,16.9-19.81,27.73-27.3A81.28,81.28,0,0,1,491,266.91c17.54-2,32.72,2.95,45.34,15.48a85.41,85.41,0,0,1,14.84,20.37c8.61,15.95,13.28,33.08,15.27,51,.19,1.78.31,3.58.51,5.37.09.76.31,1.5.49,2.34,1.1-.36,1.17-1.17,1.4-1.82.95-2.82,1.84-5.66,2.81-8.48a254.38,254.38,0,0,1,27.52-56.57c7.84-12,16.88-23,28-32.17,10.73-8.87,22.7-15.33,36.37-18.36,9.32-2.06,18.69-2.53,28.05-.3,10.72,2.56,19.57,8.28,27,16.25s13,17.5,17.41,27.54a142.24,142.24,0,0,1,11,43.09,191.59,191.59,0,0,1,1,23.95,250,250,0,0,1-8.65,60.44A259.24,259.24,0,0,1,707,487.66a147.22,147.22,0,0,1-25.51,30.42c-12.17,10.87-26,18.6-42.2,21.59-9.21,1.7-18.38,1.78-27.48-.78a53.78,53.78,0,0,1-21.29-11.82c-7.34-6.5-12.89-14.38-17.5-23-7.22-13.44-11.42-27.84-13.62-42.87-.6-4.1-1-8.25-1.44-12.37a15,15,0,0,0-.43-1.85Zm-42.38-30.55a129.46,129.46,0,0,0-1.59-19.31c-1.17-7.05-2.63-14-5.39-20.66a30.72,30.72,0,0,0-5.4-9.06c-3.61-4-8-5.7-13.39-4.62a24.09,24.09,0,0,0-9.6,4.29,49.59,49.59,0,0,0-11.24,12.06,119.14,119.14,0,0,0-9.82,17.5c-6.44,13.69-11.55,27.82-14.35,42.73a96,96,0,0,0-1.37,28.7c.67,6,2.23,11.7,5.67,16.75,5.27,7.71,12.62,11.09,21.89,10.3,9.63-.82,17.26-5.43,23.51-12.56a77.67,77.67,0,0,0,13.63-23.34C512.55,445.55,514.47,431.29,514.68,416.42ZM695,390.9a100.21,100.21,0,0,0-1.27-16.65,95.19,95.19,0,0,0-5.45-21.6,29.06,29.06,0,0,0-6.72-10.6,13,13,0,0,0-11.46-3.58A24.93,24.93,0,0,0,658.32,344a55.67,55.67,0,0,0-11.44,13.37,153.51,153.51,0,0,0-12.3,24.39c-5.86,14-10.16,28.5-11.67,43.69a77.23,77.23,0,0,0,.51,21.31A35.52,35.52,0,0,0,628.25,460c4.3,6.7,10.33,10.61,18.39,11a31,31,0,0,0,15.16-3.09c6.38-3.05,11.3-7.78,15.41-13.42A86,86,0,0,0,689,431.39C693.32,418.81,695.06,405.84,695,390.9ZM289.71,489.81h-.15c0,3.53,0,7.06,0,10.6,0,2.5.45,2.88,2.66,1.66,5.27-2.9,10.56-5.78,15.68-8.92a56.81,56.81,0,0,0,12.62-10.36A25,25,0,0,0,325,476a11.57,11.57,0,0,0,1-5.25c-.09-1.87-.73-2.73-2.59-3.08a11.8,11.8,0,0,0-3.5-.22,78.59,78.59,0,0,0-8.08,1.31A147.38,147.38,0,0,0,292.59,475a3.25,3.25,0,0,0-2.4,3.31C290.07,482.13,289.88,486,289.71,489.81Zm4.66-76.05.48.3a10.82,10.82,0,0,0,1.55-1.1c2-2.1,4.08-4.16,6-6.37a77.83,77.83,0,0,0,14.16-23.19,33.1,33.1,0,0,0,1.53-5.15c.4-1.89-.41-2.9-2.32-2.94a16.47,16.47,0,0,0-4.61.37c-4.05,1.12-8,2.48-12.06,3.71a3.19,3.19,0,0,0-2.39,3.14c-.78,9.75-1.61,19.5-2.4,29.25A13.19,13.19,0,0,0,294.37,413.76Z"/><path d="M862.61,318.75a26.14,26.14,0,0,0,.6-2.62q2.06-14.64,4.07-29.3,2.69-19.53,5.36-39.07c.05-.37.13-.73.16-1.1a2.55,2.55,0,0,1,2-2.38c1.9-.57,3.78-1.22,5.67-1.81l74.91-23.6.18-.06c2.32-.72,2.82-.38,2.85,2,.06,5.27.07,10.54.17,15.81.15,8.24.36,16.49.56,24.73.17,6.94.32,13.88.56,20.82s.57,13.62.89,20.43c.29,6.07.54,12.14.94,18.2,1,14.48,1.79,29,3.07,43.41q2.21,25,5.12,50c1.86,15.89,4.17,31.72,6.29,47.58.14,1,.37,2.08.56,3.11.43,2.37.06,3-2.18,3.72l-28.38,9-42.39,13.48c-.59.19-1.18.4-1.78.55-1.65.42-2.08.11-2.33-1.63a7,7,0,0,1-.09-.92q-.66-13.47-1.32-26.94c-.45-8.91-.94-17.82-1.39-26.74-.42-8.05-.81-16.1-1.22-24.14q-.68-12.92-1.38-25.81a27.34,27.34,0,0,0-.46-2.83l-.48,0c-.2.87-.46,1.73-.58,2.61q-1.11,7.92-2.15,15.85-3.27,24.81-6.51,49.62-3.72,28.21-7.42,56.44c-.49,3.75-.48,3.77-4.19,4.79l-38,10.46c-2.85.78-3.12.54-3.19-2.36-.21-8.48-.48-17-.7-25.46-.15-5.7-.26-11.4-.41-17.1-.22-8.31-.47-16.61-.7-24.91-.15-5.39-.27-10.78-.41-16.17q-.36-13.11-.71-26.21c-.15-5.39-.27-10.78-.41-16.17q-.4-14.88-.82-29.74a27.84,27.84,0,0,0-.35-2.79,2.91,2.91,0,0,0-1,2.21c-.61,4.61-1.22,9.22-1.79,13.84q-2.54,20.67-5,41.36-3.89,31.95-7.78,63.89l-1.83,15c-.32,2.54-.52,2.78-2.91,3.43l-63.73,17.42-9.69,2.66-.9.24c-2.36.59-2.84.12-2.27-2.29,2.54-10.68,5.18-21.33,7.62-32q10-44.08,17.23-88.74c3.89-24.06,7.21-48.2,9.76-72.44,1.51-14.31,2.72-28.64,4-43,.52-5.87.87-11.75,1.31-17.62.2-2.71.32-2.87,2.84-3.63l29.74-9,52.71-16c3.16-1,3.53-.74,3.68,2.6.22,5,.36,9.91.56,14.87.3,7.55.63,15.11.93,22.66.2,5.14.36,10.29.57,15.43q.5,12.35,1,24.71a11.9,11.9,0,0,0,.31,1.75Z"/><path d="M1002.65,385.7c-1.72,0-2.17-.44-1.91-2.29.84-5.89,1.71-11.78,2.57-17.67l15.84-108.39q4.46-30.45,8.92-60.91c.44-3,.47-3.06,3.52-3,6.88.19,13.75.44,20.63.66l14,.45,19.89.65,14.13.47,8.37.25.74.05c1.84.21,2.19.72,1.57,2.42s-1.22,3.12-1.81,4.68c-7.31,19.38-14.75,38.7-21.87,58.14a572.09,572.09,0,0,0-22.64,79.35c-2.59,12.31-4.78,24.71-7.14,37.07-.07.36-.12.73-.2,1.09-.36,1.67-.75,2.05-2.49,2.23-3.45.34-6.91.65-10.37,1l-41.14,3.72Z"/><path d="M1032.1,413.23a33.3,33.3,0,0,1,13.7,2.5c9.63,3.65,15.1,11.46,15.39,21.78a35.07,35.07,0,0,1-5.54,20.33c-10.4,16.12-24.73,26.71-43.92,30a36.08,36.08,0,0,1-17.65-1.1c-8.59-2.84-13.94-8.58-16-17.5-1.09-4.81-.6-9.5.39-14.18,1.49-7.07,5-13.17,9.51-18.73a61.91,61.91,0,0,1,32.78-21.67A36.54,36.54,0,0,1,1032.1,413.23Z"/><path class="cls-3" d="M221.58,323.9q10.92-3.24,40.56-15,25.64-9.83,41.44-13.71,6.23-1.19,12.14-2,46-6.15,50,26.64Q372,366.18,321,420.18q35.57-7.24,44.18,14.65a48.89,48.89,0,0,1,2.4,10q3.5,26.13-18,56.33-16.41,23.13-42.53,42.58-31.29,23.35-75.19,29.23-7,.93-14,1.52,4-73.25,4.24-196,.3-34.8-.57-54.55Zm56.36,140q-1,13.62-1.12,36.68Q324,479,321.38,459.86q-.93-7-13.13-5.33Q297.45,456,277.94,463.91Zm6.65-96q-1.24,11.88-2.14,23.7l-1.8,23.65Q304,396.22,312,374.21q1.83-4.84,1.46-7.64-.8-5.93-9.85-4.71Q296.67,362.79,284.59,368Z"/><path d="M213.78,578.71l.24-4.46c2.66-48.47,4.09-114.35,4.24-195.81.17-20.24.05-36.81-.37-49.39l-.2.06v-5.22l3.86-.08-1.07-3.64c7.12-2.11,20.66-7.12,40.22-14.9C277.88,298.69,292,294,302.64,291.4l.21,0c4.28-.81,8.44-1.49,12.36-2,18.89-2.53,33.12-.22,42.3,6.87,6.79,5.24,10.86,13,12.11,23.15,4,29.57-8.95,61.64-38.4,95.39,19.45-1.65,32.08,4.6,37.61,18.66l0,.11a52.51,52.51,0,0,1,2.59,10.76c2.46,18.35-3.82,38.24-18.68,59.1-11.12,15.67-25.71,30.3-43.38,43.45-21.29,15.89-47.19,26-77,30-4.6.61-9.37,1.13-14.18,1.54Zm11.81-252c.48,12.93.64,30.32.45,51.75-.15,79.08-1.5,143.54-4,191.7,3.17-.32,6.3-.68,9.34-1.09,28.47-3.82,53.16-13.4,73.38-28.49,17-12.68,31-26.71,41.69-41.73,13.67-19.2,19.5-37.22,17.31-53.56a44.89,44.89,0,0,0-2.19-9.11c-5-12.64-18-16.64-39.75-12.21l-12,2.45,8.42-8.93c33-34.94,47.66-67.62,43.7-97.16-1-8.14-4-14-9.14-18-7.48-5.78-19.76-7.57-36.52-5.32-3.74.5-7.73,1.15-11.84,1.93-10.34,2.56-24.09,7.11-40.87,13.54C245.89,319.53,233.41,324.2,225.59,326.73Zm47.32,179.93,0-6.08c.07-15.45.45-27.88,1.13-37l.18-2.41,2.23-.91c13.44-5.46,23.67-8.61,31.27-9.63,6-.8,16.24-.74,17.5,8.67,2,14.83-13.32,29.48-46.8,44.79Zm8.74-40.05c-.47,7.34-.77,16.67-.89,27.83,25.42-12.37,38.1-24.09,36.77-34.06-.35-2.58-5-2.51-8.76-2C302.34,459.24,293.22,462,281.65,466.61Zm-5.57-42.54,2.49-32.71c.6-7.92,1.32-15.93,2.15-23.81l.24-2.28,2.1-.89c8.48-3.62,15-5.71,20.06-6.38,11.66-1.56,13.84,5.11,14.23,8.05.34,2.53-.21,5.65-1.67,9.53-5.57,15.23-16.53,29.62-32.57,42.74Zm12.14-53.42c-.72,7.07-1.36,14.22-1.89,21.3l-1.08,14.15c11.12-10.47,18.88-21.61,23.13-33.23,1.31-3.46,1.35-5.11,1.26-5.79s-.28-2.07-5.48-1.37C300.29,366.23,294.94,367.89,288.22,370.65Z"/><path class="cls-3" d="M482.23,261q36.93-5,57.78,34.12,10.86,20.18,14.27,45.62,3.27,24.39-.22,53.94a253.4,253.4,0,0,1-32.56,95.88q-32,55.37-75.17,61.15-37.29,5-58.47-34-10.38-19.18-13.74-44.27-3.31-24.75.48-54.69a255.9,255.9,0,0,1,32.16-96.18q31.9-55.71,75.47-61.55Zm-1,88.1q-19.17,2.56-34.82,36.59-12.72,26.89-15.82,51.42a95.28,95.28,0,0,0-.1,23.07q1.92,14.3,10.1,22.41,9.36,9,23.65,7.12,19.51-2.61,32.44-25.27,10.35-18.06,12.94-41.11a130.65,130.65,0,0,0-4.12-51.95Q498,346.81,481.26,349.05Z"/><path d="M438,556.12c-22.38,0-40.39-12.28-53.6-36.63-7.12-13.15-11.88-28.5-14.18-45.61-2.24-16.73-2.08-35.47.48-55.69a261,261,0,0,1,32.64-97.62c21.82-38.08,48.17-59.44,78.33-63.48h0c26.29-3.51,47.05,8.64,61.73,36.14a137.18,137.18,0,0,1,14.69,46.94c2.22,16.51,2.14,35-.21,54.92a258.58,258.58,0,0,1-33,97.37c-21.84,37.83-48.09,59.05-78,63.06A66.9,66.9,0,0,1,438,556.12Zm44.71-291.31c-27.64,3.7-52.07,23.76-72.61,59.62a253.27,253.27,0,0,0-31.68,94.72c-2.47,19.57-2.64,37.63-.48,53.7s6.64,30.62,13.3,42.94c11.86,21.84,27.21,32.55,46.74,32.55a59.87,59.87,0,0,0,7.79-.53c27.42-3.68,51.75-23.61,72.32-59.24a250.85,250.85,0,0,0,32.07-94.42c2.27-19.25,2.35-37.08.22-52.95-2.2-16.4-6.85-31.31-13.84-44.29-13.18-24.69-30.79-35.2-53.83-32.1ZM459.41,493.89a29.87,29.87,0,0,1-21.49-8.55c-6.09-6-9.87-14.33-11.25-24.69a99,99,0,0,1,.09-24c2.11-16.75,7.55-34.44,16.16-52.66,11.12-24.16,23.5-36.86,37.83-38.78,16.52-2.2,24.62,12.37,28.5,25a135.5,135.5,0,0,1,4.27,53.53c-1.78,15.83-6.3,30.16-13.43,42.6-9.2,16.14-21.08,25.29-35.3,27.2A41.59,41.59,0,0,1,459.41,493.89ZM484.2,352.71a17.58,17.58,0,0,0-2.42.19c-11.31,1.52-22,13.08-31.81,34.36-8.28,17.51-13.48,34.41-15.49,50.29a91.54,91.54,0,0,0-.1,22.06c1.15,8.62,4.17,15.41,9,20.17,5.35,5.16,12,7.15,20.4,6,11.85-1.59,21.52-9.23,29.57-23.35,6.61-11.52,10.8-24.85,12.46-39.62a127.61,127.61,0,0,0-4-50.42C496.43,355,488.67,352.71,484.2,352.71Z"/><path class="cls-3" d="M663.24,236.7q36.94-4.95,57.78,34.11,10.86,20.19,14.27,45.62,3.27,24.4-.22,53.95a253.23,253.23,0,0,1-32.56,95.88q-31.95,55.37-75.16,61.15-37.29,5-58.48-34-10.36-19.17-13.73-44.27-3.32-24.74.47-54.69a256,256,0,0,1,32.17-96.18q31.9-55.69,75.46-61.54Zm-1,88.09q-19.17,2.56-34.83,36.59-12.71,26.89-15.81,51.43a95.28,95.28,0,0,0-.1,23.07q1.92,14.3,10.1,22.41,9.36,9,23.65,7.12,19.51-2.61,32.44-25.28,10.35-18,12.94-41.1a130.82,130.82,0,0,0-4.12-51.95q-7.54-24.52-24.27-22.29Z"/><path d="M619.06,531.87c-22.39,0-40.39-12.29-53.61-36.63-7.11-13.15-11.87-28.5-14.17-45.61-2.24-16.74-2.08-35.48.47-55.7a261,261,0,0,1,32.65-97.62c21.81-38.07,48.16-59.43,78.33-63.47h0c26.28-3.52,47,8.64,61.73,36.14a137,137,0,0,1,14.69,46.94c2.21,16.51,2.14,35-.21,54.92a258.32,258.32,0,0,1-33.06,97.36c-21.84,37.84-48.08,59.05-78,63.07A66.63,66.63,0,0,1,619.06,531.87Zm44.7-291.32c-27.64,3.7-52.06,23.77-72.61,59.63a253,253,0,0,0-31.67,94.72c-2.48,19.56-2.64,37.63-.49,53.7s6.65,30.62,13.31,42.93c11.85,21.84,27.2,32.56,46.74,32.56a58.21,58.21,0,0,0,7.79-.54c27.42-3.67,51.75-23.6,72.32-59.24a250.55,250.55,0,0,0,32.06-94.41c2.28-19.26,2.35-37.08.23-52.95a129.43,129.43,0,0,0-13.84-44.29c-13.18-24.7-30.79-35.2-53.84-32.11ZM640.43,469.63a29.89,29.89,0,0,1-21.49-8.54c-6.1-6-9.87-14.34-11.26-24.7a99.51,99.51,0,0,1,.09-24c2.12-16.74,7.55-34.43,16.16-52.65,11.13-24.17,23.51-36.86,37.83-38.78,16.52-2.21,24.62,12.37,28.51,25a135.28,135.28,0,0,1,4.26,53.53c-1.77,15.82-6.29,30.16-13.42,42.6-9.21,16.14-21.08,25.29-35.3,27.19A40,40,0,0,1,640.43,469.63Zm24.79-141.17a17.58,17.58,0,0,0-2.42.19h0c-11.31,1.51-22,13.07-31.81,34.36-8.28,17.51-13.49,34.42-15.49,50.28a92.18,92.18,0,0,0-.11,22.07c1.16,8.62,4.18,15.4,9,20.17,5.35,5.16,12,7.14,20.39,6,11.85-1.59,21.53-9.22,29.58-23.34,6.61-11.53,10.79-24.85,12.45-39.62a127.41,127.41,0,0,0-4-50.42C677.44,330.71,669.68,328.46,665.22,328.46Z"/><path class="cls-3" d="M727.13,507.66a1433.63,1433.63,0,0,0,39.29-252.15l81.46-24.75L853,360.21l16.8-122.47L948,213.09q.91,115.52,13.16,206.81Q963.62,438,966,455.79l-69.41,22.07-7.9-154.31-23,175.12L828.05,509,822.29,291.3l-24,196.89-71.17,19.46Z"/><path d="M824.29,514.1,819.79,344,801.85,491.25l-73.7,20.16-1-3.75-3.78-.93a1435.87,1435.87,0,0,0,39.18-251.47l.18-2.69,88.85-27L855.15,316l11.14-81.22,85.58-27,0,5.26c.61,76.47,5,145.89,13.13,206.33l5.24,39.13L893,483.09l-6-116.71L869.21,501.74Zm-5.86-223.27,7.75.37L831.81,504l30.36-8.36L884.83,323l7.74.31,7.65,149.27,61.49-19.55-4.38-32.66c-8-59.36-12.37-127.31-13.15-202l-70.85,22.33-16.46,120-7.74-.37L844.19,236l-74.07,22.5a1443.55,1443.55,0,0,1-37.64,243.71l62.27-17Z"/><path class="cls-3" d="M1015.26,409.11q12-3.37,22.07.59,11.89,4.08,13.48,15.93,2.14,16-13.15,31.56a59.16,59.16,0,0,1-27.24,16.42q-12.31,3.42-22,.1-11.55-4.12-13.14-16-2.14-16,12.41-31.82a57.81,57.81,0,0,1,27.55-16.81Zm10.33-222,74.47,2.43q-22,55.81-31.64,86.89a693.26,693.26,0,0,0-21.13,91.16L998.57,372l27-184.89Z"/><path d="M998.6,479.23a34.83,34.83,0,0,1-11.42-1.84c-9.07-3.23-14.49-9.85-15.73-19.14-1.59-11.83,2.92-23.6,13.4-35a62,62,0,0,1,29.37-17.93c8.74-2.46,17-2.23,24.45.69,9.22,3.19,14.76,9.78,16,19.06,1.59,11.89-3.2,23.6-14.24,34.81a63.18,63.18,0,0,1-29,17.44A47.81,47.81,0,0,1,998.6,479.23Zm27.27-67.79a35.31,35.31,0,0,0-9.56,1.41h0a54.27,54.27,0,0,0-25.72,15.73c-8.94,9.69-12.67,19.06-11.39,28.63.87,6.48,4.23,10.56,10.59,12.83,5.61,1.92,12.23,1.86,19.63-.19a55.55,55.55,0,0,0,25.49-15.38c9.41-9.56,13.36-18.82,12.09-28.34-.87-6.45-4.33-10.51-10.9-12.76l-.15-.06A27.13,27.13,0,0,0,1025.87,411.44ZM994,376.29l28.24-193.21,83.45,2.74-2,5.13c-14.54,36.94-25.15,66.08-31.53,86.62a692.09,692.09,0,0,0-21,90.63l-.49,3Zm34.93-185.2-25.8,176.56L1044,364a698.42,698.42,0,0,1,20.75-88.69c6.15-19.76,16.14-47.34,29.72-82Z"/></svg>