<svg xmlns="http://www.w3.org/2000/svg" xmlns:xlink="http://www.w3.org/1999/xlink" viewBox="0 0 590 517">
  <defs>
    <clipPath id="clip-Web_1920_1">
      <rect width="590" height="517"/>
    </clipPath>
  </defs>
  <g id="Web_1920_1" data-name="Web 1920 – 1" clip-path="url(#clip-Web_1920_1)">
    <g id="Gruppe_1" data-name="Gruppe 1" transform="translate(-1.784 -8.649)">
      <path id="Pfad_1" data-name="Pfad 1" d="M139.542,289.429a21.329,21.329,0,0,0,.547-5.9,16.472,16.472,0,0,0-1.117-5.423,15.722,15.722,0,0,0-2.881-4.723,19.566,19.566,0,0,0-4.706-3.859,17.957,17.957,0,0,0-9.805-2.648,19.186,19.186,0,0,0-10.208,3.411,30.445,30.445,0,0,0-9.047,10.026,30.141,30.141,0,0,0-4.568,12.716A19.144,19.144,0,0,0,99.648,303.7a18.8,18.8,0,0,0,7.227,7.574,18.411,18.411,0,0,0,8.986,2.811,15.7,15.7,0,0,0,8.567-2.226,19.832,19.832,0,0,0,6.891-7.122L133,306.3l-15.591-9.357,3.342-5.569,19.742,11.849-3.342,5.568a25.514,25.514,0,0,1-9.416,9.5,22.011,22.011,0,0,1-11.9,2.845A28.369,28.369,0,0,1,93.2,306.646a25.457,25.457,0,0,1-2.57-14.073,37.647,37.647,0,0,1,5.621-15.9,40.461,40.461,0,0,1,8.283-10.075,28.606,28.606,0,0,1,9.751-5.578,24.027,24.027,0,0,1,10.379-1,25.916,25.916,0,0,1,10.246,3.636,26.843,26.843,0,0,1,6.9,5.829,23.938,23.938,0,0,1,4.271,7.28,23.008,23.008,0,0,1,1.478,8.151,23.7,23.7,0,0,1-1.536,8.407Z" transform="translate(53.364 159.724)" fill="#fff"/>
      <path id="Pfad_2" data-name="Pfad 2" d="M140.862,328.914a19.166,19.166,0,0,1-14.06-15.77,27.652,27.652,0,0,1,1.046-12.5,28,28,0,0,1,5.993-11.12,20.43,20.43,0,0,1,29.868.337,19.555,19.555,0,0,1,4.56,9.922,27.736,27.736,0,0,1-1.042,12.595,27.388,27.388,0,0,1-6,11.026,19.159,19.159,0,0,1-20.369,5.513Zm1.787-6a11.958,11.958,0,0,0,8.036-.1,14.094,14.094,0,0,0,6.068-4.753,24.074,24.074,0,0,0,3.8-7.677,24.349,24.349,0,0,0,1.032-8.532,14.274,14.274,0,0,0-2.459-7.355,13.379,13.379,0,0,0-14.711-4.384,14.283,14.283,0,0,0-6.083,4.81,25.463,25.463,0,0,0-4.831,16.211,14.108,14.108,0,0,0,2.477,7.3A11.952,11.952,0,0,0,142.649,322.916Z" transform="translate(77.199 175.096)" fill="#fff"/>
      <path id="Pfad_3" data-name="Pfad 3" d="M195.065,300.78l-6.372,1.305a11.664,11.664,0,0,0-1.511-3.162,8.464,8.464,0,0,0-2.879-2.7,11.149,11.149,0,0,0-4.9-1.34,11.915,11.915,0,0,0-7.059,1.4,5.651,5.651,0,0,0-3.094,4.6,4.963,4.963,0,0,0,1.581,4.231,15.8,15.8,0,0,0,5.7,2.939l6.588,2.146q5.955,1.92,8.7,5.174a10.562,10.562,0,0,1,2.4,7.962,11.513,11.513,0,0,1-2.753,6.781,14.864,14.864,0,0,1-6.54,4.371,22.635,22.635,0,0,1-9.375,1.081,20.385,20.385,0,0,1-11.228-3.852,13.352,13.352,0,0,1-5.089-9.2l6.716-1.159a9.184,9.184,0,0,0,3.155,5.739,11.987,11.987,0,0,0,6.783,2.339,12.963,12.963,0,0,0,7.865-1.49,6.087,6.087,0,0,0,3.255-4.79,5.28,5.28,0,0,0-1.355-4.068,10.56,10.56,0,0,0-4.884-2.788l-7.406-2.326q-6.1-1.933-8.786-5.24a11.082,11.082,0,0,1-2.307-8.015,11.216,11.216,0,0,1,2.652-6.61,14.668,14.668,0,0,1,6.259-4.184,20.851,20.851,0,0,1,8.662-1.044q6.711.5,10.321,3.725A15.91,15.91,0,0,1,195.065,300.78Z" transform="translate(98.893 178.918)" fill="#fff"/>
      <path id="Pfad_4" data-name="Pfad 4" d="M222.447,296.688l-5.97,2.578a11.631,11.631,0,0,0-2.126-2.785,8.439,8.439,0,0,0-3.37-2.055,11.123,11.123,0,0,0-5.074-.309,11.907,11.907,0,0,0-6.623,2.815,5.646,5.646,0,0,0-2.088,5.13,4.961,4.961,0,0,0,2.412,3.819,15.763,15.763,0,0,0,6.181,1.711l6.889.753q6.222.663,9.578,3.285a10.56,10.56,0,0,1,3.977,7.3,11.5,11.5,0,0,1-1.307,7.2,14.875,14.875,0,0,1-5.51,5.614,22.65,22.65,0,0,1-8.954,2.976,20.392,20.392,0,0,1-11.779-1.475,13.357,13.357,0,0,1-6.864-7.963l6.337-2.509a9.2,9.2,0,0,0,4.263,4.972,11.983,11.983,0,0,0,7.119.9,12.974,12.974,0,0,0,7.395-3.066,6.1,6.1,0,0,0,2.208-5.355,5.275,5.275,0,0,0-2.16-3.7,10.555,10.555,0,0,0-5.352-1.732l-7.724-.761q-6.369-.643-9.674-3.331a11.077,11.077,0,0,1-3.9-7.375,11.2,11.2,0,0,1,1.242-7.012,14.659,14.659,0,0,1,5.273-5.375,20.827,20.827,0,0,1,8.264-2.795q6.671-.885,10.864,1.536A15.919,15.919,0,0,1,222.447,296.688Z" transform="translate(119.421 178.324)" fill="#fff"/>
      <path id="Pfad_5" data-name="Pfad 5" d="M244.064,327.58a18.435,18.435,0,0,1-7.91,1.112,12.86,12.86,0,0,1-11.351-9.007,11.638,11.638,0,0,1-.688-6.464,10.846,10.846,0,0,1,2.569-5,21.512,21.512,0,0,1,4.637-3.857q2.706-1.723,5.539-3.179,3.713-1.9,6.04-3.012a10.322,10.322,0,0,0,3.227-2.191,2.477,2.477,0,0,0,.342-2.632l-.08-.223a9.242,9.242,0,0,0-4.542-5.583q-3.04-1.481-7.569.141-4.7,1.683-6.627,4.7a12.911,12.911,0,0,0-2.176,5.736l-7.021.008a15.88,15.88,0,0,1,2.273-7.651,17.708,17.708,0,0,1,5.017-5.248,26.943,26.943,0,0,1,6.239-3.24,27.591,27.591,0,0,1,4.9-1.194,16.07,16.07,0,0,1,5.9.11,12.314,12.314,0,0,1,5.82,3.024,17.9,17.9,0,0,1,4.575,7.516l10.083,28.121-6.557,2.351-2.073-5.78-.332.12a12.3,12.3,0,0,1-1.157,3.77,13.622,13.622,0,0,1-3.174,4.18A16.946,16.946,0,0,1,244.064,327.58Zm-1.111-6.249a13.805,13.805,0,0,0,6.008-3.879,11.059,11.059,0,0,0,2.643-5.4,10.7,10.7,0,0,0-.434-5.583l-2.153-6a4.175,4.175,0,0,1-1.5,1.574,32.741,32.741,0,0,1-2.974,1.85q-1.706.925-3.35,1.765-1.626.8-2.632,1.32a26.675,26.675,0,0,0-4.391,2.8,8.771,8.771,0,0,0-2.77,3.471,5.946,5.946,0,0,0,.081,4.424,6.248,6.248,0,0,0,4.382,4.261A12.061,12.061,0,0,0,242.953,321.331Z" transform="translate(138.123 173.464)" fill="#fff"/>
      <path id="Pfad_6" data-name="Pfad 6" d="M282.742,289.466l-14.379-22.62,5.879-3.737,24.325,38.264-5.88,3.737-4.116-6.477-.4.253a14.892,14.892,0,0,1-1.034,7.619,14.31,14.31,0,0,1-5.892,6.578,15.15,15.15,0,0,1-7.375,2.484,13.016,13.016,0,0,1-7.425-1.995,21.537,21.537,0,0,1-6.741-7.082l-15.456-24.314,5.879-3.737,15.2,23.915a11.084,11.084,0,0,0,6.587,5.187,9.415,9.415,0,0,0,7.611-1.342,11.849,11.849,0,0,0,3.747-3.955,11.527,11.527,0,0,0,1.651-5.877A12.218,12.218,0,0,0,282.742,289.466Z" transform="translate(155.212 161.893)" fill="#fff"/>
      <path class="car" id="Pfad_7" data-name="Pfad 7" d="M198.989,59.1a46.643,46.643,0,0,1,63.964-16.114l91.488,54.667a46.643,46.643,0,0,1,16.114,63.963,15.549,15.549,0,0,1-21.321,5.371L204.36,80.422A15.548,15.548,0,0,1,198.989,59.1Z" transform="translate(123.768 11.688)" fill="#df7979"/>
      <path class="car" id="Pfad_8" data-name="Pfad 8" d="M255.639,26.576a24.939,24.939,0,0,1,30.947-4.311l53.233,31.808a24.938,24.938,0,0,1,10.582,30.1l-10.934,29.391A24.936,24.936,0,0,1,303.3,126.279L239.355,88.068a24.937,24.937,0,0,1-5.363-38.5Z" transform="translate(143.922 0)" fill="#df7979"/>
      <path class="car" id="Pfad_9" data-name="Pfad 9" d="M260.84,23.731l75.884,45.343L324.56,98.8,239.19,47.787Z" transform="translate(151.86 3.31)" fill="#a5cad2"/>
      <rect class="car" id="Rechteck_1" data-name="Rechteck 1" width="7.687" height="51.604" transform="matrix(0.858, 0.513, -0.513, 0.858, 450.884, 43.688)" fill="#df7979"/>
      <ellipse class="car" id="Ellipse_1" data-name="Ellipse 1" cx="16.369" cy="16.874" rx="16.369" ry="16.874" transform="matrix(0.863, -0.506, 0.506, 0.863, 428.916, 158.763)" fill="#626262"/>
      <ellipse class="car" id="Ellipse_2" data-name="Ellipse 2" cx="8.185" cy="8.437" rx="8.185" ry="8.437" transform="matrix(0.863, -0.506, 0.506, 0.863, 440.554, 162.118)"/>
      <ellipse class="car" id="Ellipse_3" data-name="Ellipse 3" cx="16.369" cy="16.874" rx="16.369" ry="16.874" transform="matrix(0.863, -0.506, 0.506, 0.863, 325.842, 98.913)" fill="#626262"/>
      <ellipse class="car" id="Ellipse_4" data-name="Ellipse 4" cx="8.185" cy="8.437" rx="8.185" ry="8.437" transform="matrix(0.863, -0.506, 0.506, 0.863, 337.478, 102.269)"/>
      <path class="car" id="Pfad_10" data-name="Pfad 10" d="M285.087,325.876a44.6,44.6,0,0,0,54.621-31.536L367.825,189.4a44.6,44.6,0,0,0-31.536-54.621,14.866,14.866,0,0,0-18.206,10.512L274.575,307.669A14.866,14.866,0,0,0,285.087,325.876Z" transform="translate(174.965 76.541)" fill="#7983df"/>
      <path class="car" id="Pfad_11" data-name="Pfad 11" d="M350.632,284.42a24.94,24.94,0,0,0,25.027-18.465l15.853-59.168a24.938,24.938,0,0,0-13.228-28.9l-25.022-12.1a24.938,24.938,0,0,0-34.947,15.995L299.5,251.994a24.937,24.937,0,0,0,23.15,31.373Z" transform="translate(191.244 95.758)" fill="#7983df"/>
      <path class="car" id="Pfad_12" data-name="Pfad 12" d="M347.954,269.127,370.6,184.6l-28.1-12.454L317.025,267.24Z" transform="translate(203.425 101.635)" fill="#a5cad2"/>
      <rect class="car" id="Rechteck_2" data-name="Rechteck 2" width="7.609" height="49.342" transform="matrix(0.259, -0.966, 0.966, 0.259, 519.192, 319.796)" fill="#7983df"/>
      <ellipse class="car" id="Ellipse_5" data-name="Ellipse 5" cx="15.785" cy="16.562" rx="15.785" ry="16.562" transform="translate(449.597 382.431) rotate(-114.553)" fill="#626262"/>
      <ellipse class="car" id="Ellipse_6" data-name="Ellipse 6" cx="7.893" cy="8.281" rx="7.893" ry="8.281" transform="translate(453.831 371.444) rotate(-114.553)"/>
      <ellipse class="car" id="Ellipse_7" data-name="Ellipse 7" cx="15.785" cy="16.562" rx="15.785" ry="16.562" transform="translate(479.028 271.791) rotate(-114.553)" fill="#626262"/>
      <ellipse class="car" id="Ellipse_8" data-name="Ellipse 8" cx="7.893" cy="8.281" rx="7.893" ry="8.281" transform="translate(483.26 260.805) rotate(-114.553)"/>
      <path class="car" id="Pfad_13" data-name="Pfad 13" d="M68.366,157.652A48.245,48.245,0,0,1,86.7,93.67l88.05-50.835a44.374,44.374,0,0,1,61.8,17.713,16.083,16.083,0,0,1-6.113,21.327L88.967,163.557A14.793,14.793,0,0,1,68.366,157.652Z" transform="translate(35.034 11.922)" fill="#79df7d"/>
      <path class="car" id="Pfad_14" data-name="Pfad 14" d="M66.819,81.068A26.039,26.039,0,0,1,78.687,51.508l51.043-29.47a23.882,23.882,0,0,1,30.882,5.829l18.909,23.927c9.581,12.124,6.01,30.427-7.456,38.2l-61.411,35.456a24,24,0,0,1-35.294-14.47Z" transform="translate(37.012 0.011)" fill="#79df7d"/>
      <ellipse class="car" id="Ellipse_9" data-name="Ellipse 9" cx="16.379" cy="16.899" rx="16.379" ry="16.899" transform="translate(216.011 103.456) rotate(-28.474)" fill="#626262"/>
      <ellipse class="car" id="Ellipse_10" data-name="Ellipse 10" cx="8.189" cy="8.449" rx="8.189" ry="8.449" transform="translate(226.936 107.067) rotate(-28.474)"/>
      <ellipse class="car" id="Ellipse_11" data-name="Ellipse 11" cx="16.379" cy="16.899" rx="16.379" ry="16.899" transform="translate(134.411 150.294) rotate(-28.474)" fill="#626262"/>
      <ellipse class="car" id="Ellipse_12" data-name="Ellipse 12" cx="8.189" cy="8.449" rx="8.189" ry="8.449" transform="translate(145.337 153.905) rotate(-28.474)"/>
      <path class="car" id="Pfad_15" data-name="Pfad 15" d="M70.433,66.488l74.392-42.95,18.839,25.477L79.973,97.333Z" transform="translate(40.062 3.182)" fill="#a5cad2"/>
      <rect class="car" id="Rechteck_3" data-name="Rechteck 3" width="7.359" height="51.929" transform="translate(142.798 44.961) rotate(-28.474)" fill="#79df7d"/>
      <path class="car" id="Pfad_16" data-name="Pfad 16" d="M67.195,134.109a46.319,46.319,0,0,0-31.551,56.16L63.872,295.617a43.764,43.764,0,0,0,54.857,30.817,15.439,15.439,0,0,0,10.517-18.719L85.48,144.381A14.589,14.589,0,0,0,67.195,134.109Z" transform="translate(15.985 76.031)" fill="#dddf79"/>
      <path class="car" id="Pfad_17" data-name="Pfad 17" d="M23.149,178.247A25.681,25.681,0,0,0,10.818,207.2l16.017,59.776a24.215,24.215,0,0,0,25.793,17.956L80.915,282.2a25.6,25.6,0,0,0,22.065-31.993L83.932,179.115A24.3,24.3,0,0,0,48.405,164.2Z" transform="translate(0 94.269)" fill="#dddf79"/>
      <path class="car" id="Pfad_18" data-name="Pfad 18" d="M15.867,185.079l22.794,85.066,30.654-4-25.643-95.7Z" transform="translate(3.913 100.502)" fill="#a5cad2"/>
      <rect class="car" id="Rechteck_4" data-name="Rechteck 4" width="7.611" height="50.107" transform="translate(27.513 334.126) rotate(-105.095)" fill="#dddf79"/>
      <ellipse class="car" id="Ellipse_13" data-name="Ellipse 13" cx="16.383" cy="16.86" rx="16.383" ry="16.86" transform="matrix(0.886, -0.464, 0.464, 0.886, 86.494, 237.76)" fill="#626262"/>
      <ellipse class="car" id="Ellipse_14" data-name="Ellipse 14" cx="8.192" cy="8.43" rx="8.192" ry="8.43" transform="matrix(0.886, -0.464, 0.464, 0.886, 97.986, 241.666)"/>
      <ellipse class="car" id="Ellipse_15" data-name="Ellipse 15" cx="16.383" cy="16.86" rx="16.383" ry="16.86" transform="matrix(0.886, -0.464, 0.464, 0.886, 114.717, 346.542)" fill="#626262"/>
      <ellipse class="car" id="Ellipse_16" data-name="Ellipse 16" cx="8.192" cy="8.43" rx="8.192" ry="8.43" transform="matrix(0.886, -0.464, 0.464, 0.886, 126.209, 350.449)"/>
      <circle id="Ellipse_17" data-name="Ellipse 17" cx="124.686" cy="124.686" r="124.686" transform="translate(171.078 162.149)" fill="#5b5b5b"/>
      <circle id="Ellipse_18" data-name="Ellipse 18" cx="8.312" cy="8.312" r="8.312" transform="translate(219.29 223.661)" fill="#b6e4a0"/>
      <circle id="Ellipse_19" data-name="Ellipse 19" cx="8.312" cy="8.312" r="8.312" transform="translate(202.665 260.235)" fill="#b6e4a0"/>
      <circle id="Ellipse_20" data-name="Ellipse 20" cx="8.312" cy="8.312" r="8.312" transform="translate(249.424 193.736)" fill="#a0d4e4"/>
      <circle id="Ellipse_21" data-name="Ellipse 21" cx="8.312" cy="8.312" r="8.312" transform="translate(277.476 177.111)" fill="#b6e4a0"/>
      <circle id="Ellipse_22" data-name="Ellipse 22" cx="8.312" cy="8.312" r="8.312" transform="translate(302.414 226.986)" fill="#cdbee0"/>
      <circle id="Ellipse_23" data-name="Ellipse 23" cx="8.312" cy="8.312" r="8.312" transform="translate(325.898 187.086)" fill="#b6e4a0"/>
      <circle id="Ellipse_24" data-name="Ellipse 24" cx="8.312" cy="8.312" r="8.312" transform="translate(262.724 225.323)" fill="#cdbee0"/>
      <circle id="Ellipse_25" data-name="Ellipse 25" cx="8.312" cy="8.312" r="8.312" transform="translate(350.625 228.648)" fill="#a0d4e4"/>
      <circle id="Ellipse_26" data-name="Ellipse 26" cx="8.312" cy="8.312" r="8.312" transform="translate(277.476 260.235)" fill="#b6e4a0"/>
      <circle id="Ellipse_27" data-name="Ellipse 27" cx="8.312" cy="8.312" r="8.312" transform="translate(227.811 293.485)" fill="#b6e4a0"/>
      <circle id="Ellipse_28" data-name="Ellipse 28" cx="8.312" cy="8.312" r="8.312" transform="translate(204.537 311.772)" fill="#cdbee0"/>
      <circle id="Ellipse_29" data-name="Ellipse 29" cx="8.312" cy="8.312" r="8.312" transform="translate(330.885 364.972)" fill="#b6e4a0"/>
      <circle id="Ellipse_30" data-name="Ellipse 30" cx="8.312" cy="8.312" r="8.312" transform="translate(289.323 374.947)" fill="#cdbee0"/>
      <circle id="Ellipse_31" data-name="Ellipse 31" cx="8.312" cy="8.312" r="8.312" transform="translate(302.623 315.097)" fill="#b6e4a0"/>
      <circle id="Ellipse_32" data-name="Ellipse 32" cx="8.312" cy="8.312" r="8.312" transform="translate(244.436 265.223)" fill="#a0d4e4"/>
      <circle id="Ellipse_33" data-name="Ellipse 33" cx="8.312" cy="8.312" r="8.312" transform="translate(225.94 336.71)" fill="#a0d4e4"/>
      <circle id="Ellipse_34" data-name="Ellipse 34" cx="8.312" cy="8.312" r="8.312" transform="translate(269.164 301.797)" fill="#cdbee0"/>
      <circle id="Ellipse_35" data-name="Ellipse 35" cx="8.312" cy="8.312" r="8.312" transform="translate(260.852 354.997)" fill="#cdbee0"/>
      <circle id="Ellipse_36" data-name="Ellipse 36" cx="8.312" cy="8.312" r="8.312" transform="translate(334.21 295.147)" fill="#cdbee0"/>
      <circle id="Ellipse_37" data-name="Ellipse 37" cx="8.312" cy="8.312" r="8.312" transform="translate(375.772 310.11)" fill="#b6e4a0"/>
      <circle id="Ellipse_38" data-name="Ellipse 38" cx="8.312" cy="8.312" r="8.312" transform="translate(304.076 345.022)" fill="#b6e4a0"/>
      <circle id="Ellipse_39" data-name="Ellipse 39" cx="8.312" cy="8.312" r="8.312" transform="translate(352.288 333.385)" fill="#a0d4e4"/>
      <circle id="Ellipse_40" data-name="Ellipse 40" cx="8.312" cy="8.312" r="8.312" transform="translate(382.422 265.223)" fill="#b6e4a0"/>
      <circle id="Ellipse_41" data-name="Ellipse 41" cx="8.312" cy="8.312" r="8.312" transform="translate(327.351 260.235)" fill="#b6e4a0"/>
    </g>
  </g>
</svg>
